<svg width="132" height="32" viewBox="0 0 132 32" fill="none" xmlns="http://www.w3.org/2000/svg">
<g clip-path="url(#clip0_2006_38763)">
<path d="M40.2679 21.9634H49.5483V19.1536H43.5664V8.57019H40.2679V21.9634Z" fill="#005427"/>
<path d="M55.0442 20.0873C53.7211 20.0873 53.0316 18.9259 53.0316 17.1838C53.0316 15.4418 53.7211 14.2617 55.0442 14.2617C56.3673 14.2617 57.0755 15.4418 57.0755 17.1838C57.0755 18.9259 56.3673 20.0873 55.0442 20.0873ZM55.0629 22.2601C58.1377 22.2601 60.1503 20.0685 60.1503 17.1838C60.1503 14.2992 58.1377 12.1075 55.0629 12.1075C52.0067 12.1075 49.9568 14.2992 49.9568 17.1838C49.9568 20.0685 52.0067 22.2601 55.0629 22.2601Z" fill="#005427"/>
<path d="M65.4717 25.2771C66.888 25.2771 68.1366 24.9586 68.9752 24.2094C69.7392 23.5163 70.2424 22.4673 70.2424 21.025V12.3709H67.3353V13.4012H67.298C66.7389 12.5957 65.8817 12.09 64.6145 12.09C62.2478 12.09 60.6079 14.0755 60.6079 16.8853C60.6079 19.8262 62.6019 21.4371 64.7449 21.4371C65.9003 21.4371 66.6271 20.9688 67.1862 20.3319H67.2607V21.2872C67.2607 22.4486 66.7203 23.1229 65.4345 23.1229C64.4281 23.1229 63.925 22.6921 63.7573 22.1864H60.8129C61.1111 24.1906 62.8441 25.2771 65.4717 25.2771ZM65.4531 19.1706C64.3163 19.1706 63.5709 18.234 63.5709 16.7916C63.5709 15.3306 64.3163 14.394 65.4531 14.394C66.7203 14.394 67.3912 15.4804 67.3912 16.7729C67.3912 18.1216 66.7762 19.1706 65.4531 19.1706Z" fill="#005427"/>
<path d="M76.2244 20.0875C74.9013 20.0875 74.2118 18.9261 74.2118 17.1841C74.2118 15.442 74.9013 14.2619 76.2244 14.2619C77.5475 14.2619 78.2556 15.442 78.2556 17.1841C78.2556 18.9261 77.5475 20.0875 76.2244 20.0875ZM76.243 22.2604C79.3179 22.2604 81.3305 20.0688 81.3305 17.1841C81.3305 14.2994 79.3179 12.1078 76.243 12.1078C73.1868 12.1078 71.137 14.2994 71.137 17.1841C71.137 20.0688 73.1868 22.2604 76.243 22.2604Z" fill="#005427"/>
<path d="M82.2153 21.9634H85.2529V12.3727H82.2153V21.9634ZM82.2153 11.0428H85.2529V8.57019H82.2153V11.0428Z" fill="#005427"/>
<path d="M86.5712 25.1272H89.6087V20.9688H89.646C90.2423 21.7743 91.1182 22.2613 92.3481 22.2613C94.8452 22.2613 96.5038 20.2757 96.5038 17.1663C96.5038 14.2816 94.957 12.09 92.4226 12.09C91.1182 12.09 90.1864 12.6706 89.5342 13.5323H89.4783V12.3709H86.5712V25.1272ZM91.5654 19.9011C90.261 19.9011 89.5155 18.8334 89.5155 17.2786C89.5155 15.7239 90.1864 14.5438 91.5095 14.5438C92.814 14.5438 93.429 15.6303 93.429 17.2786C93.429 18.9083 92.7208 19.9011 91.5654 19.9011Z" fill="#005427"/>
<path d="M101.449 22.2613C103.946 22.2613 105.791 21.1748 105.791 19.0769C105.791 16.623 103.816 16.1922 102.139 15.9112C100.927 15.6865 99.8466 15.5928 99.8466 14.9185C99.8466 14.319 100.424 14.0381 101.17 14.0381C102.008 14.0381 102.586 14.3003 102.698 15.162H105.493C105.344 13.2701 103.89 12.09 101.188 12.09C98.9335 12.09 97.07 13.1389 97.07 15.162C97.07 17.4098 98.8403 17.8593 100.499 18.1403C101.766 18.3651 102.921 18.4587 102.921 19.3204C102.921 19.9386 102.344 20.2757 101.431 20.2757C100.424 20.2757 99.7907 19.8074 99.6789 18.8521H96.8091C96.9023 20.9688 98.654 22.2613 101.449 22.2613Z" fill="#005427"/>
<path d="M109.917 22.2414C111.24 22.2414 112.079 21.7169 112.768 20.7803H112.824V21.9604H115.731V12.3698H112.694V17.727C112.694 18.8697 112.06 19.6564 111.017 19.6564C110.048 19.6564 109.582 19.0757 109.582 18.0267V12.3698H106.563V18.6636C106.563 20.799 107.718 22.2414 109.917 22.2414Z" fill="#005427"/>
<path d="M117.052 21.9616H120.09V16.5856C120.09 15.4429 120.649 14.6375 121.599 14.6375C122.513 14.6375 122.941 15.2369 122.941 16.2671V21.9616H125.979V16.5856C125.979 15.4429 126.519 14.6375 127.488 14.6375C128.401 14.6375 128.83 15.2369 128.83 16.2671V21.9616H131.867V15.7239C131.867 13.5698 130.787 12.09 128.625 12.09C127.395 12.09 126.37 12.6145 125.625 13.7758H125.587C125.103 12.7456 124.152 12.09 122.904 12.09C121.525 12.09 120.612 12.7456 120.015 13.7384H119.959V12.3709H117.052V21.9616Z" fill="#005427"/>
<path fill-rule="evenodd" clip-rule="evenodd" d="M16.0595 31.327C24.6361 31.327 31.5889 24.3383 31.5889 15.7173C31.5889 7.09627 24.6361 0.107544 16.0595 0.107544C7.48277 0.107544 0.530029 7.09627 0.530029 15.7173C0.530029 24.3383 7.48277 31.327 16.0595 31.327ZM20.9041 7.37922C21.1399 6.53724 20.327 6.03935 19.5846 6.571L9.22116 13.9921C8.41604 14.5686 8.54268 15.7173 9.41139 15.7173H12.1404V15.696H17.459L13.1253 17.2331L11.2148 24.0554C10.979 24.8974 11.7918 25.3952 12.5343 24.8636L22.8978 17.4425C23.7029 16.866 23.5762 15.7173 22.7075 15.7173H18.5691L20.9041 7.37922Z" fill="#005427"/>
</g>
<defs>
<clipPath id="clip0_2006_38763">
<rect width="132" height="32" fill="white"/>
</clipPath>
</defs>
</svg>
